<svg width="100px" height="100px" viewBox="-2.4 -2.4 28.80 28.80" fill="none" xmlns="http://www.w3.org/2000/svg" stroke="#000000" transform="matrix(1, 0, 0, 1, 0, 0)rotate(0)"><g id="SVGRepo_bgCarrier" stroke-width="0"><rect x="-2.4" y="-2.4" width="28.80" height="28.80" rx="14.4" fill="#e5e7eb" strokewidth="0"></rect></g><g id="SVGRepo_tracerCarrier" stroke-linecap="round" stroke-linejoin="round"></g><g id="SVGRepo_iconCarrier"> <path d="M18 16L16 16M16 16L14 16M16 16L16 14M16 16L16 18" stroke="#41B06E" stroke-width="1.128" stroke-linecap="round"></path> <path d="M7 4V2.5" stroke="#41B06E" stroke-width="1.128" stroke-linecap="round"></path> <path d="M17 4V2.5" stroke="#41B06E" stroke-width="1.128" stroke-linecap="round"></path> <path d="M21.5 9H16.625H10.75M2 9H5.875" stroke="#41B06E" stroke-width="1.128" stroke-linecap="round"></path> <path d="M14 22H10C6.22876 22 4.34315 22 3.17157 20.8284C2 19.6569 2 17.7712 2 14V12C2 8.22876 2 6.34315 3.17157 5.17157C4.34315 4 6.22876 4 10 4H14C17.7712 4 19.6569 4 20.8284 5.17157C22 6.34315 22 8.22876 22 12V14C22 17.7712 22 19.6569 20.8284 20.8284C20.1752 21.4816 19.3001 21.7706 18 21.8985" stroke="#41B06E" stroke-width="1.128" stroke-linecap="round"></path> </g></svg>